<?xml version="1.0" standalone="no"?><svg xmlns="http://www.w3.org/2000/svg" viewBox="0 0 1440 320"><path fill="#0099ff" fill-opacity="1" d="M0,224L16,218.7C32,213,64,203,96,218.7C128,235,160,277,192,277.3C224,277,256,235,288,186.7C320,139,352,85,384,85.3C416,85,448,139,480,144C512,149,544,107,576,106.7C608,107,640,149,672,192C704,235,736,277,768,261.3C800,245,832,171,864,128C896,85,928,75,960,101.3C992,128,1024,192,1056,181.3C1088,171,1120,85,1152,74.7C1184,64,1216,128,1248,170.7C1280,213,1312,235,1344,208C1376,181,1408,107,1424,69.3L1440,32L1440,320L1424,320C1408,320,1376,320,1344,320C1312,320,1280,320,1248,320C1216,320,1184,320,1152,320C1120,320,1088,320,1056,320C1024,320,992,320,960,320C928,320,896,320,864,320C832,320,800,320,768,320C736,320,704,320,672,320C640,320,608,320,576,320C544,320,512,320,480,320C448,320,416,320,384,320C352,320,320,320,288,320C256,320,224,320,192,320C160,320,128,320,96,320C64,320,32,320,16,320L0,320Z"></path></svg>